<?xml version="1.0" encoding="utf-8"?>
<!-- Generator: Adobe Illustrator 25.1.0, SVG Export Plug-In . SVG Version: 6.00 Build 0)  -->
<svg version="1.1" id="Layer_1" xmlns="http://www.w3.org/2000/svg" xmlns:xlink="http://www.w3.org/1999/xlink" x="0px" y="0px"
	 viewBox="0 0 841.89 595.28" style="enable-background:new 0 0 841.89 595.28;" xml:space="preserve">
<style type="text/css">
	.st0{fill:none;}
	.st1{fill:none;stroke:#020203;stroke-width:0.4797;stroke-miterlimit:10;}
	.st2{fill:url(#SVGID_1_);stroke:#020203;stroke-width:0.4291;stroke-miterlimit:10;}
</style>
<pattern  width="459.87" height="619.28" patternUnits="userSpaceOnUse" id="New_Pattern" viewBox="68.66 -619.28 459.87 619.28" style="overflow:visible;">
	<g>
		<rect x="68.66" y="-619.28" class="st0" width="459.87" height="619.28"/>
		<g>
			<polygon id="XMLID_00000025409893447365337810000017934283504467972513_" class="st1" points="406.09,-188.63 404.73,-198.45 
				401.31,-200.23 395.27,-196.75 389.23,-193.26 389.07,-189.41 396.89,-183.32 			"/>
			<polygon id="XMLID_00000068641566450857356510000014272275416695312573_" class="st1" points="354.69,-109.15 345.63,-113.19 
				342.31,-111.23 342.07,-104.26 341.84,-97.3 345.02,-95.12 354.33,-98.54 			"/>
			<polygon id="XMLID_00000149381921853385987030000004530794290681246381_" class="st1" points="394.96,-23.5 386.74,-17.95 
				386.64,-14.09 392.43,-10.21 398.22,-6.32 401.75,-7.87 403.78,-17.58 			"/>
			<polygon id="XMLID_00000072244964475037552510000005516345681364537220_" class="st1" points="496.91,-16.12 498.17,-6.29 
				501.57,-4.47 507.64,-7.89 513.72,-11.31 513.92,-15.16 506.17,-21.34 			"/>
			<polygon id="XMLID_00000003078988447172310190000002736508291976173450_" class="st1" points="504.83,-184.99 512.73,-190.99 
				512.61,-194.84 506.61,-198.4 500.62,-201.96 497.18,-200.21 495.7,-190.41 			"/>
			<g>
				<path class="st1" d="M412.26-182.23c7.28-5.79,18.52-4.91,25.28,1.3c7.24,6.47,9.84,16.51,10.74,25.85
					c1.27,17.75-4.19,35.51-13.29,50.64c-1.84-2.77-4.44-5.15-5.76-8.19c8.26-14.4,7.67-32.64,1.01-47.53
					c-3.43-6.77-7.63-14.1-14.88-17.34c-5.17-1.17-7.78,3.92-10.32,7.34C406.44-174.67,408.28-179.38,412.26-182.23z"/>
				<path class="st1" d="M458.25-171.43c3.5-6.38,8.63-12.87,16.11-14.45c6.91-1.45,13.51,1.67,19.65,4.36
					c-3.78-0.24-8.09-0.17-10.82,2.9c-11.67,11.08-17.58,27.13-17.54,43.09c-3.44,1.91-6.97,3.68-10.55,5.3
					C451.86-143.79,451.52-158.83,458.25-171.43z"/>
				<path class="st1" d="M392.24-168.15c2.53-4.73,7.11-7.68,11.31-10.77c-4.83,7.65-0.59,16.56,3.38,23.54
					c4.93,9.79,13.22,17.56,22.86,22.64c0.19,4.15,0.07,8.32-0.29,12.48c-14.94-4.14-29.58-13.1-36.57-27.42
					C389.72-153.92,388.51-161.87,392.24-168.15z"/>
				<path class="st1" d="M485.96-177.25c5.49,0.14,11.57-0.79,16.45,2.41c7.82,4.53,11.7,14.52,8.86,23.15
					c-3.68,11.84-14.25,19.79-24.85,25.23c-13.09,6.43-27.81,9.52-42.38,8.95c1.4-2.95,2.79-5.91,4.07-8.93
					c17.59-0.07,34.11-10.69,43.51-25.21c2.94-5.77,7.06-11.95,5.88-18.72C496.68-175.73,489.95-175.68,485.96-177.25z"/>
				<path class="st1" d="M379.12-131.19c10.64-1.99,21.44,1.79,30.51,7.16c13.44,8.19,24.47,20.16,31.89,34.02
					c-3.33,0.37-6.64,0.74-9.94,1.1c-11.36-20.11-38.38-29.9-60.11-22.56c-6.47,2.25-4.61,9.71-1.74,14.13
					c-4-3.66-7.14-8.64-6.96-14.25C362.55-121.01,370.02-129.4,379.12-131.19z"/>
				<path class="st1" d="M476.42-112.85c10.38-10.03,23.94-17.86,38.72-17.98c6.82-0.19,14.3,1.47,19.11,6.65
					c4.66,5.67,6.48,13.59,5.28,20.78c-0.54-9-10.27-11.21-17.66-11.23c-12.24-1.18-24.6,1.82-35.02,8.32
					C483.19-108.19,479.73-110.42,476.42-112.85z"/>
				<path class="st1" d="M460.25-115.99c3.21-0.35,6.43-0.73,9.64-1.2c7.94,14.52,24.13,22.98,40.15,24.97
					c7.46,0.46,15.7,0.46,22.29-3.55c4.31-3.5,1.54-8.81-0.25-12.85c9.05,7.21,8.83,22.17-0.19,29.28
					c-8.56,7.11-20.78,5.88-30.49,2.08C483.67-84.71,469.01-98.97,460.25-115.99z"/>
				<path class="st1" d="M368.11-80.96c-5.54-5.54-6.53-13.78-6.5-21.24c0.34,5.1,4.69,8.61,9.4,9.61
					c14.66,3.33,30.75,1.3,43.43-7.04c3.83,1.77,7.38,4.1,10.77,6.64c-9.35,8.64-20.68,15.91-33.55,17.51
					C383.56-74.46,374.44-75.3,368.11-80.96z"/>
				<path class="st1" d="M453.41-62.35c1.37-13.85,5.98-27.4,13.41-39.17c1.87,2.68,3.78,5.35,5.74,7.99
					c-8.39,13.93-7.7,31.73-1.77,46.45c3.19,6.86,7.28,14.05,14.01,17.93c5.34,3.04,9.05-2.82,11.77-6.47
					c-1.62,5.05-3.97,10.42-8.92,13.02c-8.37,5.4-20.13,2.58-26.15-5.03C453.92-37.38,452.43-50.4,453.41-62.35z"/>
				<path class="st1" d="M408.73-75.83c14.44-9.07,31.76-13.17,48.73-12.65c-1.32,2.97-2.62,5.94-3.87,8.95
					c-17.59,0.02-33.99,10.65-43.46,25.09c-3.22,6.06-7.78,12.85-5.74,20.01c1.54,4.42,7.18,4,10.84,5.13
					c-4.59,0.51-9.49,1.32-13.83-0.76c-8.56-3.34-13.58-13.37-11.48-22.27C391.97-62.66,400.31-70.27,408.73-75.83z"/>
				<path class="st1" d="M472.22-85.72c13.86,4.07,27.45,11.85,34.93,24.62c3.9,6.48,6.4,14.93,2.84,22.1
					c-2.4,5.35-7.45,8.61-11.8,12.22c3.55-6.16,2.03-13.44-1.28-19.37c-5-11.45-13.69-21.43-25.02-26.95
					C471.59-77.3,471.76-81.52,472.22-85.72z"/>
				<path class="st1" d="M435.83-70.25c3.48-2.04,7.02-3.93,10.69-5.62c2.85,12.51,3.63,26.14-1.64,38.14
					c-3.24,7.33-8.32,14.66-16.19,17.41c-7.21,2.09-14.22-1.32-20.84-3.77c9.96,0.96,15.72-8.34,20.19-15.7
					C433.77-48.86,435.63-59.68,435.83-70.25z"/>
			</g>
		</g>
		<g>
			<polygon id="XMLID_00000170278911953322207860000012710228344326333832_" class="st1" points="176.15,-188.63 174.79,-198.45 
				171.37,-200.23 165.33,-196.75 159.29,-193.26 159.13,-189.41 166.95,-183.32 			"/>
			<polygon id="XMLID_00000116919471151690584320000007624804440780034970_" class="st1" points="124.75,-109.15 115.69,-113.19 
				112.37,-111.23 112.14,-104.26 111.9,-97.3 115.08,-95.12 124.39,-98.54 			"/>
			<polygon id="XMLID_00000168812910156335999480000005966997699905715859_" class="st1" points="165.02,-23.5 156.8,-17.95 
				156.71,-14.09 162.5,-10.21 168.29,-6.32 171.82,-7.87 173.84,-17.58 			"/>
			<polygon id="XMLID_00000174581433888039223980000012154202890699705992_" class="st1" points="266.97,-16.12 268.23,-6.29 
				271.63,-4.47 277.7,-7.89 283.78,-11.31 283.99,-15.16 276.23,-21.34 			"/>
			<polygon id="XMLID_00000173153786333656013030000003212256014365163176_" class="st1" points="319.42,-98.36 328.57,-94.52 
				331.84,-96.55 331.93,-103.53 332.01,-110.5 328.78,-112.6 319.55,-108.98 			"/>
			<polygon id="XMLID_00000151531885196621850540000007159706506334987684_" class="st1" points="274.9,-184.99 282.79,-190.99 
				282.67,-194.84 276.68,-198.4 270.68,-201.96 267.24,-200.21 265.76,-190.41 			"/>
			<g>
				<path class="st1" d="M182.32-182.23c7.28-5.79,18.52-4.91,25.28,1.3c7.24,6.47,9.84,16.51,10.74,25.85
					c1.27,17.75-4.19,35.51-13.29,50.64c-1.84-2.77-4.44-5.15-5.76-8.19c8.26-14.4,7.67-32.64,1.01-47.53
					c-3.43-6.77-7.63-14.1-14.88-17.34c-5.17-1.17-7.78,3.92-10.32,7.34C176.5-174.67,178.34-179.38,182.32-182.23z"/>
				<path class="st1" d="M228.32-171.43c3.5-6.38,8.63-12.87,16.11-14.45c6.91-1.45,13.51,1.67,19.65,4.36
					c-3.78-0.24-8.09-0.17-10.82,2.9c-11.67,11.08-17.58,27.13-17.54,43.09c-3.44,1.91-6.97,3.68-10.55,5.3
					C221.92-143.79,221.58-158.83,228.32-171.43z"/>
				<path class="st1" d="M162.3-168.15c2.53-4.73,7.11-7.68,11.31-10.77c-4.83,7.65-0.59,16.56,3.38,23.54
					c4.93,9.79,13.22,17.56,22.86,22.64c0.19,4.15,0.07,8.32-0.29,12.48c-14.94-4.14-29.58-13.1-36.57-27.42
					C159.78-153.92,158.57-161.87,162.3-168.15z"/>
				<path class="st1" d="M256.03-177.25c5.49,0.14,11.57-0.79,16.45,2.41c7.82,4.53,11.7,14.52,8.86,23.15
					c-3.68,11.84-14.25,19.79-24.85,25.23c-13.09,6.43-27.81,9.52-42.38,8.95c1.4-2.95,2.79-5.91,4.07-8.93
					c17.59-0.07,34.11-10.69,43.51-25.21c2.94-5.77,7.06-11.95,5.88-18.72C266.75-175.73,260.01-175.68,256.03-177.25z"/>
				<path class="st1" d="M149.18-131.19c10.64-1.99,21.44,1.79,30.51,7.16c13.44,8.19,24.47,20.16,31.89,34.02
					c-3.33,0.37-6.64,0.74-9.94,1.1c-11.36-20.11-38.38-29.9-60.11-22.56c-6.47,2.25-4.61,9.71-1.74,14.13
					c-4-3.66-7.14-8.64-6.96-14.25C132.62-121.01,140.08-129.4,149.18-131.19z"/>
				<path class="st1" d="M246.49-112.85c10.38-10.03,23.94-17.86,38.72-17.98c6.82-0.19,14.3,1.47,19.11,6.65
					c4.66,5.67,6.48,13.59,5.28,20.78c-0.54-9-10.27-11.21-17.66-11.23c-12.24-1.18-24.6,1.82-35.02,8.32
					C253.26-108.19,249.79-110.42,246.49-112.85z"/>
				<path class="st1" d="M230.31-115.99c3.21-0.35,6.43-0.73,9.64-1.2c7.94,14.52,24.13,22.98,40.15,24.97
					c7.46,0.46,15.7,0.46,22.29-3.55c4.31-3.5,1.54-8.81-0.25-12.85c9.05,7.21,8.83,22.17-0.19,29.28
					c-8.56,7.11-20.78,5.88-30.49,2.08C253.73-84.71,239.07-98.97,230.31-115.99z"/>
				<path class="st1" d="M138.17-80.96c-5.54-5.54-6.53-13.78-6.5-21.24c0.34,5.1,4.69,8.61,9.4,9.61
					c14.66,3.33,30.75,1.3,43.43-7.04c3.83,1.77,7.38,4.1,10.77,6.64c-9.35,8.64-20.68,15.91-33.55,17.51
					C153.62-74.46,144.5-75.3,138.17-80.96z"/>
				<path class="st1" d="M223.47-62.35c1.37-13.85,5.98-27.4,13.41-39.17c1.87,2.68,3.78,5.35,5.74,7.99
					c-8.39,13.93-7.7,31.73-1.77,46.45c3.19,6.86,7.28,14.05,14.01,17.93c5.34,3.04,9.05-2.82,11.77-6.47
					c-1.62,5.05-3.97,10.42-8.92,13.02c-8.37,5.4-20.13,2.58-26.15-5.03C223.98-37.38,222.49-50.4,223.47-62.35z"/>
				<path class="st1" d="M178.8-75.83c14.44-9.07,31.76-13.17,48.73-12.65c-1.32,2.97-2.62,5.94-3.87,8.95
					c-17.59,0.02-33.99,10.65-43.46,25.09c-3.22,6.06-7.78,12.85-5.74,20.01c1.54,4.42,7.18,4,10.84,5.13
					c-4.59,0.51-9.49,1.32-13.83-0.76c-8.56-3.34-13.58-13.37-11.48-22.27C162.03-62.66,170.37-70.27,178.8-75.83z"/>
				<path class="st1" d="M242.28-85.72c13.86,4.07,27.45,11.85,34.93,24.62c3.9,6.48,6.4,14.93,2.84,22.1
					c-2.4,5.35-7.45,8.61-11.8,12.22c3.55-6.16,2.03-13.44-1.28-19.37c-5-11.45-13.69-21.43-25.02-26.95
					C241.66-77.3,241.83-81.52,242.28-85.72z"/>
				<path class="st1" d="M205.9-70.25c3.48-2.04,7.02-3.93,10.69-5.62c2.85,12.51,3.63,26.14-1.64,38.14
					c-3.24,7.33-8.32,14.66-16.19,17.41c-7.21,2.09-14.22-1.32-20.84-3.77c9.96,0.96,15.72-8.34,20.19-15.7
					C203.84-48.86,205.69-59.68,205.9-70.25z"/>
			</g>
		</g>
		<g>
			<polygon id="XMLID_00000055703127315178896940000002379111437053123983_" class="st1" points="89.49,-98.36 98.63,-94.52 
				101.91,-96.55 101.99,-103.53 102.07,-110.5 98.84,-112.6 89.61,-108.98 			"/>
			<g>
				<path class="st1" d="M16.55-112.85c10.38-10.03,23.94-17.86,38.72-17.98c6.82-0.19,14.3,1.47,19.11,6.65
					c4.66,5.67,6.48,13.59,5.28,20.78c-0.54-9-10.27-11.21-17.66-11.23c-12.24-1.18-24.6,1.82-35.02,8.32
					C23.32-108.19,19.86-110.42,16.55-112.85z"/>
				<path class="st1" d="M0.37-115.99c3.21-0.35,6.43-0.73,9.64-1.2c7.94,14.52,24.13,22.98,40.15,24.97
					c7.46,0.46,15.7,0.46,22.29-3.55c4.31-3.5,1.54-8.81-0.25-12.85c9.05,7.21,8.83,22.17-0.19,29.28
					c-8.56,7.11-20.78,5.88-30.49,2.08C23.79-84.71,9.14-98.97,0.37-115.99z"/>
			</g>
		</g>
		<g>
			<polygon id="XMLID_00000114073757627994507830000000516188440652248224_" class="st1" points="482.73,-395.05 481.37,-404.87 
				477.96,-406.66 471.92,-403.17 465.88,-399.69 465.71,-395.84 473.54,-389.74 			"/>
			<polygon id="XMLID_00000183964516468086203840000015655035153740135816_" class="st1" points="431.33,-315.58 422.28,-319.62 
				418.96,-317.66 418.72,-310.69 418.48,-303.72 421.67,-301.55 430.97,-304.96 			"/>
			<polygon id="XMLID_00000057838377761326639940000001920860084473297561_" class="st1" points="471.6,-229.92 463.39,-224.37 
				463.29,-220.52 469.08,-216.63 474.87,-212.75 478.4,-214.3 480.42,-224.01 			"/>
			<g>
				<path class="st1" d="M488.91-388.66c7.28-5.79,18.52-4.91,25.28,1.3c7.24,6.47,9.84,16.51,10.74,25.85
					c1.27,17.75-4.19,35.51-13.29,50.64c-1.84-2.77-4.44-5.15-5.76-8.19c8.26-14.4,7.67-32.64,1.01-47.53
					c-3.43-6.77-7.63-14.1-14.88-17.34c-5.17-1.17-7.78,3.92-10.32,7.34C483.08-381.1,484.92-385.81,488.91-388.66z"/>
				<path class="st1" d="M468.88-374.58c2.53-4.73,7.11-7.68,11.31-10.77c-4.83,7.65-0.59,16.56,3.38,23.54
					c4.93,9.79,13.22,17.56,22.86,22.64c0.19,4.15,0.07,8.32-0.29,12.48c-14.94-4.14-29.58-13.1-36.57-27.42
					C466.37-360.34,465.15-368.3,468.88-374.58z"/>
				<path class="st1" d="M562.61-383.68c5.49,0.14,11.57-0.79,16.45,2.41c7.82,4.53,11.7,14.52,8.86,23.15
					c-3.68,11.84-14.25,19.79-24.85,25.23c-13.09,6.43-27.81,9.52-42.38,8.95c1.4-2.95,2.79-5.91,4.07-8.93
					c17.59-0.07,34.11-10.69,43.51-25.21c2.94-5.77,7.06-11.95,5.88-18.72C573.33-382.16,566.59-382.11,562.61-383.68z"/>
				<path class="st1" d="M455.76-337.62c10.64-1.99,21.44,1.79,30.51,7.16c13.44,8.19,24.47,20.16,31.89,34.02
					c-3.33,0.37-6.64,0.74-9.94,1.1c-11.36-20.11-38.38-29.9-60.11-22.56c-6.47,2.25-4.61,9.71-1.74,14.13
					c-4-3.66-7.14-8.64-6.96-14.25C439.2-327.44,446.66-335.83,455.76-337.62z"/>
				<path class="st1" d="M444.75-287.39c-5.54-5.54-6.53-13.78-6.5-21.24c0.34,5.1,4.69,8.61,9.4,9.61
					c14.66,3.33,30.75,1.3,43.43-7.04c3.83,1.77,7.38,4.1,10.77,6.64c-9.35,8.64-20.68,15.91-33.55,17.51
					C460.2-280.89,451.09-281.73,444.75-287.39z"/>
				<path class="st1" d="M485.38-282.25c14.44-9.07,31.76-13.17,48.73-12.65c-1.32,2.97-2.62,5.94-3.87,8.95
					c-17.59,0.02-33.99,10.65-43.46,25.09c-3.22,6.06-7.78,12.85-5.74,20.01c1.54,4.42,7.18,4,10.84,5.13
					c-4.59,0.51-9.49,1.32-13.83-0.76c-8.56-3.34-13.58-13.37-11.48-22.27C468.61-269.08,476.95-276.7,485.38-282.25z"/>
				<path class="st1" d="M512.48-276.68c3.48-2.04,7.02-3.93,10.69-5.62c2.85,12.51,3.63,26.14-1.64,38.14
					c-3.24,7.33-8.32,14.66-16.19,17.41c-7.21,2.09-14.22-1.32-20.84-3.77c9.96,0.96,15.72-8.34,20.19-15.7
					C510.42-255.29,512.28-266.11,512.48-276.68z"/>
			</g>
		</g>
		<g>
			<polygon id="XMLID_00000155142390256877847490000008853142918947815336_" class="st1" points="252.8,-395.05 251.43,-404.87 
				248.02,-406.66 241.98,-403.17 235.94,-399.69 235.78,-395.84 243.6,-389.74 			"/>
			<polygon id="XMLID_00000094592325607730937430000000397784079508948892_" class="st1" points="201.4,-315.58 192.34,-319.62 
				189.02,-317.66 188.78,-310.69 188.55,-303.72 191.73,-301.55 201.04,-304.96 			"/>
			<polygon id="XMLID_00000033353837104290271630000012763656679979828113_" class="st1" points="241.66,-229.92 233.45,-224.37 
				233.35,-220.52 239.14,-216.63 244.93,-212.75 248.46,-214.3 250.48,-224.01 			"/>
			<polygon id="XMLID_00000044878292974894083360000016243767353297246854_" class="st1" points="343.62,-222.55 344.88,-212.72 
				348.27,-210.9 354.35,-214.32 360.43,-217.74 360.63,-221.59 352.87,-227.76 			"/>
			<polygon id="XMLID_00000124150923811780631820000006036876552242690988_" class="st1" points="396.07,-304.79 405.21,-300.95 
				408.49,-302.98 408.57,-309.95 408.65,-316.93 405.42,-319.03 396.19,-315.41 			"/>
			<polygon id="XMLID_00000041270946319362463270000018199804080842510727_" class="st1" points="351.54,-391.42 359.44,-397.42 
				359.32,-401.27 353.32,-404.83 347.33,-408.39 343.89,-406.64 342.41,-396.84 			"/>
			<g>
				<path class="st1" d="M258.97-388.66c7.28-5.79,18.52-4.91,25.28,1.3c7.24,6.47,9.84,16.51,10.74,25.85
					c1.27,17.75-4.19,35.51-13.29,50.64c-1.84-2.77-4.44-5.15-5.76-8.19c8.26-14.4,7.67-32.64,1.01-47.53
					c-3.43-6.77-7.63-14.1-14.88-17.34c-5.17-1.17-7.78,3.92-10.32,7.34C253.14-381.1,254.99-385.81,258.97-388.66z"/>
				<path class="st1" d="M304.96-377.85c3.5-6.38,8.63-12.87,16.11-14.45c6.91-1.45,13.51,1.67,19.65,4.36
					c-3.78-0.24-8.09-0.17-10.82,2.9c-11.67,11.08-17.58,27.13-17.54,43.09c-3.44,1.91-6.97,3.68-10.55,5.3
					C298.56-350.21,298.23-365.26,304.96-377.85z"/>
				<path class="st1" d="M238.95-374.58c2.53-4.73,7.11-7.68,11.31-10.77c-4.83,7.65-0.59,16.56,3.38,23.54
					c4.93,9.79,13.22,17.56,22.86,22.64c0.19,4.15,0.07,8.32-0.29,12.48c-14.94-4.14-29.58-13.1-36.57-27.42
					C236.43-360.34,235.21-368.3,238.95-374.58z"/>
				<path class="st1" d="M332.67-383.68c5.49,0.14,11.57-0.79,16.45,2.41c7.82,4.53,11.7,14.52,8.86,23.15
					c-3.68,11.84-14.25,19.79-24.85,25.23c-13.09,6.43-27.81,9.52-42.38,8.95c1.4-2.95,2.79-5.91,4.07-8.93
					c17.59-0.07,34.11-10.69,43.51-25.21c2.94-5.77,7.06-11.95,5.88-18.72C343.39-382.16,336.66-382.11,332.67-383.68z"/>
				<path class="st1" d="M225.83-337.62c10.64-1.99,21.44,1.79,30.51,7.16c13.44,8.19,24.47,20.16,31.89,34.02
					c-3.33,0.37-6.64,0.74-9.94,1.1c-11.36-20.11-38.38-29.9-60.11-22.56c-6.47,2.25-4.61,9.71-1.74,14.13
					c-4-3.66-7.14-8.64-6.96-14.25C209.26-327.44,216.73-335.83,225.83-337.62z"/>
				<path class="st1" d="M323.13-319.28c10.38-10.03,23.94-17.86,38.72-17.98c6.82-0.19,14.3,1.47,19.11,6.65
					c4.66,5.67,6.48,13.59,5.28,20.78c-0.54-9-10.27-11.21-17.66-11.23c-12.24-1.18-24.6,1.82-35.02,8.32
					C329.9-314.62,326.44-316.85,323.13-319.28z"/>
				<path class="st1" d="M306.96-322.42c3.21-0.35,6.43-0.73,9.64-1.2c7.94,14.52,24.13,22.98,40.15,24.97
					c7.46,0.46,15.7,0.46,22.29-3.55c4.31-3.5,1.54-8.81-0.25-12.85c9.05,7.21,8.83,22.17-0.19,29.28
					c-8.56,7.11-20.78,5.88-30.49,2.08C330.37-291.13,315.72-305.4,306.96-322.42z"/>
				<path class="st1" d="M214.82-287.39c-5.54-5.54-6.53-13.78-6.5-21.24c0.34,5.1,4.69,8.61,9.4,9.61
					c14.66,3.33,30.75,1.3,43.43-7.04c3.83,1.77,7.38,4.1,10.77,6.64c-9.35,8.64-20.68,15.91-33.55,17.51
					C230.27-280.89,221.15-281.73,214.82-287.39z"/>
				<path class="st1" d="M300.12-268.78c1.37-13.85,5.98-27.4,13.41-39.17c1.87,2.68,3.78,5.35,5.74,7.99
					c-8.39,13.93-7.7,31.73-1.77,46.45c3.19,6.86,7.28,14.05,14.01,17.93c5.34,3.04,9.05-2.82,11.77-6.47
					c-1.62,5.05-3.97,10.42-8.92,13.02c-8.37,5.4-20.13,2.58-26.15-5.03C300.62-243.81,299.14-256.83,300.12-268.78z"/>
				<path class="st1" d="M255.44-282.25c14.44-9.07,31.76-13.17,48.73-12.65c-1.32,2.97-2.62,5.94-3.87,8.95
					c-17.59,0.02-33.99,10.65-43.46,25.09c-3.22,6.06-7.78,12.85-5.74,20.01c1.54,4.42,7.18,4,10.84,5.13
					c-4.59,0.51-9.49,1.32-13.83-0.76c-8.56-3.34-13.58-13.37-11.48-22.27C238.67-269.08,247.02-276.7,255.44-282.25z"/>
				<path class="st1" d="M318.93-292.15c13.86,4.07,27.45,11.85,34.93,24.62c3.9,6.48,6.4,14.93,2.84,22.1
					c-2.4,5.35-7.45,8.61-11.8,12.22c3.55-6.16,2.03-13.44-1.28-19.37c-5-11.45-13.69-21.43-25.02-26.95
					C318.3-283.72,318.47-287.94,318.93-292.15z"/>
				<path class="st1" d="M282.54-276.68c3.48-2.04,7.02-3.93,10.69-5.62c2.85,12.51,3.63,26.14-1.64,38.14
					c-3.24,7.33-8.32,14.66-16.19,17.41c-7.21,2.09-14.22-1.32-20.84-3.77c9.96,0.96,15.72-8.34,20.19-15.7
					C280.48-255.29,282.34-266.11,282.54-276.68z"/>
			</g>
		</g>
		<g>
			<polygon id="XMLID_00000004541802055670863820000011959380725073296044_" class="st1" points="113.68,-222.55 114.94,-212.72 
				118.34,-210.9 124.41,-214.32 130.49,-217.74 130.69,-221.59 122.94,-227.76 			"/>
			<polygon id="XMLID_00000031203024052919902440000010552242943363607713_" class="st1" points="166.13,-304.79 175.27,-300.95 
				178.55,-302.98 178.63,-309.95 178.72,-316.93 175.49,-319.03 166.26,-315.41 			"/>
			<polygon id="XMLID_00000066473266426390472030000012717747487428332196_" class="st1" points="121.6,-391.42 129.5,-397.42 
				129.38,-401.27 123.39,-404.83 117.39,-408.39 113.95,-406.64 112.47,-396.84 			"/>
			<g>
				<path class="st1" d="M75.03-377.85c3.5-6.38,8.63-12.87,16.11-14.45c6.91-1.45,13.51,1.67,19.65,4.36
					c-3.78-0.24-8.09-0.17-10.82,2.9c-11.67,11.08-17.58,27.13-17.54,43.09c-3.44,1.91-6.97,3.68-10.55,5.3
					C68.63-350.21,68.29-365.26,75.03-377.85z"/>
				<path class="st1" d="M102.73-383.68c5.49,0.14,11.57-0.79,16.45,2.41c7.82,4.53,11.7,14.52,8.86,23.15
					c-3.68,11.84-14.25,19.79-24.85,25.23c-13.09,6.43-27.81,9.52-42.38,8.95c1.4-2.95,2.79-5.91,4.07-8.93
					c17.59-0.07,34.11-10.69,43.51-25.21c2.94-5.77,7.06-11.95,5.88-18.72C113.46-382.16,106.72-382.11,102.73-383.68z"/>
				<path class="st1" d="M93.19-319.28c10.38-10.03,23.94-17.86,38.72-17.98c6.82-0.19,14.3,1.47,19.11,6.65
					c4.66,5.67,6.48,13.59,5.28,20.78c-0.54-9-10.27-11.21-17.66-11.23c-12.24-1.18-24.6,1.82-35.02,8.32
					C99.96-314.62,96.5-316.85,93.19-319.28z"/>
				<path class="st1" d="M77.02-322.42c3.21-0.35,6.43-0.73,9.64-1.2c7.94,14.52,24.13,22.98,40.15,24.97
					c7.46,0.46,15.7,0.46,22.29-3.55c4.31-3.5,1.54-8.81-0.25-12.85c9.05,7.21,8.83,22.17-0.19,29.28
					c-8.56,7.11-20.78,5.88-30.49,2.08C100.44-291.13,85.78-305.4,77.02-322.42z"/>
				<path class="st1" d="M70.18-268.78c1.37-13.85,5.98-27.4,13.41-39.17c1.87,2.68,3.78,5.35,5.74,7.99
					c-8.39,13.93-7.7,31.73-1.77,46.45c3.19,6.86,7.28,14.05,14.01,17.93c5.34,3.04,9.05-2.82,11.77-6.47
					c-1.62,5.05-3.97,10.42-8.92,13.02c-8.37,5.4-20.13,2.58-26.15-5.03C70.69-243.81,69.2-256.83,70.18-268.78z"/>
				<path class="st1" d="M25.5-282.25c14.44-9.07,31.76-13.17,48.73-12.65c-1.32,2.97-2.62,5.94-3.87,8.95
					c-17.59,0.02-33.99,10.65-43.46,25.09c-3.22,6.06-7.78,12.85-5.74,20.01c1.54,4.42,7.18,4,10.84,5.13
					c-4.59,0.51-9.49,1.32-13.83-0.76c-8.56-3.34-13.58-13.37-11.48-22.27C8.74-269.08,17.08-276.7,25.5-282.25z"/>
				<path class="st1" d="M88.99-292.15c13.86,4.07,27.45,11.85,34.93,24.62c3.9,6.48,6.4,14.93,2.84,22.1
					c-2.4,5.35-7.45,8.61-11.8,12.22c3.55-6.16,2.03-13.44-1.28-19.37c-5-11.45-13.69-21.43-25.02-26.95
					C88.36-283.72,88.53-287.94,88.99-292.15z"/>
			</g>
		</g>
		<g>
			<polygon id="XMLID_00000112598513781926648060000000579498452602049694_" class="st1" points="507.98,-522.01 498.92,-526.04 
				495.6,-524.09 495.37,-517.12 495.13,-510.15 498.31,-507.98 507.62,-511.39 			"/>
			<g>
				<path class="st1" d="M532.41-544.05c10.64-1.99,21.44,1.79,30.51,7.16c13.44,8.19,24.47,20.16,31.89,34.02
					c-3.33,0.37-6.64,0.74-9.94,1.1c-11.36-20.11-38.38-29.9-60.11-22.56c-6.47,2.25-4.61,9.71-1.74,14.13
					c-4-3.66-7.14-8.64-6.96-14.25C515.85-533.86,523.31-542.26,532.41-544.05z"/>
				<path class="st1" d="M521.4-493.81c-5.54-5.54-6.53-13.78-6.5-21.24c0.34,5.1,4.69,8.61,9.4,9.61
					c14.66,3.33,30.75,1.3,43.43-7.04c3.83,1.77,7.38,4.1,10.77,6.64c-9.35,8.64-20.68,15.91-33.55,17.51
					C536.85-487.31,527.73-488.16,521.4-493.81z"/>
			</g>
		</g>
		<g>
			<polygon id="XMLID_00000011721501600537930880000013236757789517681332_" class="st1" points="329.44,-601.48 328.08,-611.3 
				324.66,-613.09 318.62,-609.6 312.58,-606.12 312.42,-602.27 320.24,-596.17 			"/>
			<polygon id="XMLID_00000139264720266347071990000001365269669206783679_" class="st1" points="278.04,-522.01 268.99,-526.04 
				265.66,-524.09 265.43,-517.12 265.19,-510.15 268.38,-507.98 277.68,-511.39 			"/>
			<polygon id="XMLID_00000148635578541979349920000004003581811349173665_" class="st1" points="318.31,-436.35 310.09,-430.8 
				310,-426.95 315.79,-423.06 321.58,-419.18 325.11,-420.73 327.13,-430.43 			"/>
			<polygon id="XMLID_00000093151557345274604550000017519412352354129055_" class="st1" points="420.27,-428.98 421.52,-419.15 
				424.92,-417.32 431,-420.74 437.07,-424.17 437.28,-428.01 429.52,-434.19 			"/>
			<polygon id="XMLID_00000073003220552109856730000013318452405254776996_" class="st1" points="472.72,-511.22 481.86,-507.38 
				485.14,-509.41 485.22,-516.38 485.3,-523.35 482.07,-525.46 472.84,-521.84 			"/>
			<polygon id="XMLID_00000132050585938447418920000005810635555970903700_" class="st1" points="428.19,-597.85 436.08,-603.84 
				435.97,-607.7 429.97,-611.26 423.97,-614.81 420.53,-613.07 419.05,-603.27 			"/>
			<g>
				<path class="st1" d="M335.62-595.09c7.28-5.79,18.52-4.91,25.28,1.3c7.24,6.47,9.84,16.51,10.74,25.85
					c1.27,17.75-4.19,35.51-13.29,50.64c-1.84-2.77-4.44-5.15-5.76-8.19c8.26-14.4,7.67-32.64,1.01-47.53
					c-3.43-6.77-7.63-14.1-14.88-17.34c-5.17-1.17-7.78,3.92-10.32,7.34C329.79-587.52,331.63-592.23,335.62-595.09z"/>
				<path class="st1" d="M381.61-584.28c3.5-6.38,8.63-12.87,16.11-14.45c6.91-1.45,13.51,1.67,19.65,4.36
					c-3.78-0.24-8.09-0.17-10.82,2.9c-11.67,11.08-17.58,27.13-17.54,43.09c-3.44,1.91-6.97,3.68-10.55,5.3
					C375.21-556.64,374.87-571.69,381.61-584.28z"/>
				<path class="st1" d="M315.59-581.01c2.53-4.73,7.11-7.68,11.31-10.77c-4.83,7.65-0.59,16.56,3.38,23.54
					c4.93,9.79,13.22,17.56,22.86,22.64c0.19,4.15,0.07,8.32-0.29,12.48c-14.94-4.14-29.58-13.1-36.57-27.42
					C313.08-566.77,311.86-574.72,315.59-581.01z"/>
				<path class="st1" d="M409.32-590.11c5.49,0.14,11.57-0.79,16.45,2.41c7.82,4.53,11.7,14.52,8.86,23.15
					c-3.68,11.84-14.25,19.79-24.85,25.23c-13.09,6.43-27.81,9.52-42.38,8.95c1.4-2.95,2.79-5.91,4.07-8.93
					c17.59-0.07,34.11-10.69,43.51-25.21c2.94-5.77,7.06-11.95,5.88-18.72C420.04-588.59,413.3-588.54,409.32-590.11z"/>
				<path class="st1" d="M302.47-544.05c10.64-1.99,21.44,1.79,30.51,7.16c13.44,8.19,24.47,20.16,31.89,34.02
					c-3.33,0.37-6.64,0.74-9.94,1.1c-11.36-20.11-38.38-29.9-60.11-22.56c-6.47,2.25-4.61,9.71-1.74,14.13
					c-4-3.66-7.14-8.64-6.96-14.25C285.91-533.86,293.37-542.26,302.47-544.05z"/>
				<path class="st1" d="M399.78-525.71c10.38-10.03,23.94-17.86,38.72-17.98c6.82-0.19,14.3,1.47,19.11,6.65
					c4.66,5.67,6.48,13.59,5.28,20.78c-0.54-9-10.27-11.21-17.66-11.23c-12.24-1.18-24.6,1.82-35.02,8.32
					C406.55-521.05,403.09-523.28,399.78-525.71z"/>
				<path class="st1" d="M383.6-528.85c3.21-0.35,6.43-0.73,9.64-1.2c7.94,14.52,24.13,22.98,40.15,24.97
					c7.46,0.46,15.7,0.46,22.29-3.55c4.31-3.5,1.54-8.81-0.25-12.85c9.05,7.21,8.83,22.17-0.19,29.28
					c-8.56,7.11-20.78,5.88-30.49,2.08C407.02-497.56,392.36-511.83,383.6-528.85z"/>
				<path class="st1" d="M291.46-493.81c-5.54-5.54-6.53-13.78-6.5-21.24c0.34,5.1,4.69,8.61,9.4,9.61
					c14.66,3.33,30.75,1.3,43.43-7.04c3.83,1.77,7.38,4.1,10.77,6.64c-9.35,8.64-20.68,15.91-33.55,17.51
					C306.91-487.31,297.79-488.16,291.46-493.81z"/>
				<path class="st1" d="M376.76-475.21c1.37-13.85,5.98-27.4,13.41-39.17c1.87,2.68,3.78,5.35,5.74,7.99
					c-8.39,13.93-7.7,31.73-1.77,46.45c3.19,6.86,7.28,14.05,14.01,17.93c5.34,3.04,9.05-2.82,11.77-6.47
					c-1.62,5.05-3.97,10.42-8.92,13.02c-8.37,5.4-20.13,2.58-26.15-5.03C377.27-450.24,375.78-463.25,376.76-475.21z"/>
				<path class="st1" d="M332.09-488.68c14.44-9.07,31.76-13.17,48.73-12.65c-1.32,2.97-2.62,5.94-3.87,8.95
					c-17.59,0.02-33.99,10.65-43.46,25.09c-3.22,6.06-7.78,12.85-5.74,20.01c1.54,4.42,7.18,4,10.84,5.13
					c-4.59,0.51-9.49,1.32-13.83-0.76c-8.56-3.34-13.58-13.37-11.48-22.27C315.32-475.51,323.66-483.13,332.09-488.68z"/>
				<path class="st1" d="M395.57-498.58c13.86,4.07,27.45,11.85,34.93,24.62c3.9,6.48,6.4,14.93,2.84,22.1
					c-2.4,5.35-7.45,8.61-11.8,12.22c3.55-6.16,2.03-13.44-1.28-19.37c-5-11.45-13.69-21.43-25.02-26.95
					C394.95-490.15,395.12-494.37,395.57-498.58z"/>
				<path class="st1" d="M359.19-483.11c3.48-2.04,7.02-3.93,10.69-5.62c2.85,12.51,3.63,26.14-1.64,38.14
					c-3.24,7.33-8.32,14.66-16.19,17.41c-7.21,2.09-14.22-1.32-20.84-3.77c9.96,0.96,15.72-8.34,20.19-15.7
					C357.13-461.72,358.98-472.54,359.19-483.11z"/>
			</g>
		</g>
		<g>
			<polygon id="XMLID_00000117640377577423119630000003827636798581242799_" class="st1" points="99.51,-601.48 98.14,-611.3 
				94.73,-613.09 88.69,-609.6 82.65,-606.12 82.48,-602.27 90.31,-596.17 			"/>
			<polygon id="XMLID_00000040543662539976611310000002756329091949022092_" class="st1" points="88.37,-436.35 80.16,-430.8 
				80.06,-426.95 85.85,-423.06 91.64,-419.18 95.17,-420.73 97.19,-430.43 			"/>
			<polygon id="XMLID_00000001646879436571273080000004167149061154600075_" class="st1" points="190.33,-428.98 191.59,-419.15 
				194.98,-417.32 201.06,-420.74 207.14,-424.17 207.34,-428.01 199.58,-434.19 			"/>
			<polygon id="XMLID_00000060709617546782631260000002831650459821943467_" class="st1" points="242.78,-511.22 251.92,-507.38 
				255.2,-509.41 255.28,-516.38 255.36,-523.35 252.13,-525.46 242.9,-521.84 			"/>
			<polygon id="XMLID_00000110466115275114858440000003705366880453156015_" class="st1" points="198.25,-597.85 206.14,-603.84 
				206.03,-607.7 200.03,-611.26 194.03,-614.81 190.6,-613.07 189.12,-603.27 			"/>
			<g>
				<path class="st1" d="M105.68-595.09c7.28-5.79,18.52-4.91,25.28,1.3c7.24,6.47,9.84,16.51,10.74,25.85
					c1.27,17.75-4.19,35.51-13.29,50.64c-1.84-2.77-4.44-5.15-5.76-8.19c8.26-14.4,7.67-32.64,1.01-47.53
					c-3.43-6.77-7.63-14.1-14.88-17.34c-5.17-1.17-7.78,3.92-10.32,7.34C99.85-587.52,101.69-592.23,105.68-595.09z"/>
				<path class="st1" d="M151.67-584.28c3.5-6.38,8.63-12.87,16.11-14.45c6.91-1.45,13.51,1.67,19.65,4.36
					c-3.78-0.24-8.09-0.17-10.82,2.9c-11.67,11.08-17.58,27.13-17.54,43.09c-3.44,1.91-6.97,3.68-10.55,5.3
					C145.27-556.64,144.94-571.69,151.67-584.28z"/>
				<path class="st1" d="M85.65-581.01c2.53-4.73,7.11-7.68,11.31-10.77c-4.83,7.65-0.59,16.56,3.38,23.54
					c4.93,9.79,13.22,17.56,22.86,22.64c0.19,4.15,0.07,8.32-0.29,12.48c-14.94-4.14-29.58-13.1-36.57-27.42
					C83.14-566.77,81.92-574.72,85.65-581.01z"/>
				<path class="st1" d="M179.38-590.11c5.49,0.14,11.57-0.79,16.45,2.41c7.82,4.53,11.7,14.52,8.86,23.15
					c-3.68,11.84-14.25,19.79-24.85,25.23c-13.09,6.43-27.81,9.52-42.38,8.95c1.4-2.95,2.79-5.91,4.07-8.93
					c17.59-0.07,34.11-10.69,43.51-25.21c2.94-5.77,7.06-11.95,5.88-18.72C190.1-588.59,183.36-588.54,179.38-590.11z"/>
				<path class="st1" d="M72.53-544.05c10.64-1.99,21.44,1.79,30.51,7.16c13.44,8.19,24.47,20.16,31.89,34.02
					c-3.33,0.37-6.64,0.74-9.94,1.1c-11.36-20.11-38.38-29.9-60.11-22.56c-6.47,2.25-4.61,9.71-1.74,14.13
					c-4-3.66-7.14-8.64-6.96-14.25C55.97-533.86,63.43-542.26,72.53-544.05z"/>
				<path class="st1" d="M169.84-525.71c10.38-10.03,23.94-17.86,38.72-17.98c6.82-0.19,14.3,1.47,19.11,6.65
					c4.66,5.67,6.48,13.59,5.28,20.78c-0.54-9-10.27-11.21-17.66-11.23c-12.24-1.18-24.6,1.82-35.02,8.32
					C176.61-521.05,173.15-523.28,169.84-525.71z"/>
				<path class="st1" d="M153.66-528.85c3.21-0.35,6.43-0.73,9.64-1.2c7.94,14.52,24.13,22.98,40.15,24.97
					c7.46,0.46,15.7,0.46,22.29-3.55c4.31-3.5,1.54-8.81-0.25-12.85c9.05,7.21,8.83,22.17-0.19,29.28
					c-8.56,7.11-20.78,5.88-30.49,2.08C177.08-497.56,162.43-511.83,153.66-528.85z"/>
				<path class="st1" d="M61.53-493.81c-5.54-5.54-6.53-13.78-6.5-21.24c0.34,5.1,4.69,8.61,9.4,9.61
					c14.66,3.33,30.75,1.3,43.43-7.04c3.83,1.77,7.38,4.1,10.77,6.64c-9.35,8.64-20.68,15.91-33.55,17.51
					C76.97-487.31,67.86-488.16,61.53-493.81z"/>
				<path class="st1" d="M146.83-475.21c1.37-13.85,5.98-27.4,13.41-39.17c1.87,2.68,3.78,5.35,5.74,7.99
					c-8.39,13.93-7.7,31.73-1.77,46.45c3.19,6.86,7.28,14.05,14.01,17.93c5.34,3.04,9.05-2.82,11.77-6.47
					c-1.62,5.05-3.97,10.42-8.92,13.02c-8.37,5.4-20.13,2.58-26.15-5.03C147.33-450.24,145.85-463.25,146.83-475.21z"/>
				<path class="st1" d="M102.15-488.68c14.44-9.07,31.76-13.17,48.73-12.65c-1.32,2.97-2.62,5.94-3.87,8.95
					c-17.59,0.02-33.99,10.65-43.46,25.09c-3.22,6.06-7.78,12.85-5.74,20.01c1.54,4.42,7.18,4,10.84,5.13
					c-4.59,0.51-9.49,1.32-13.83-0.76c-8.56-3.34-13.58-13.37-11.48-22.27C85.38-475.51,93.72-483.13,102.15-488.68z"/>
				<path class="st1" d="M165.64-498.58c13.86,4.07,27.45,11.85,34.93,24.62c3.9,6.48,6.4,14.93,2.84,22.1
					c-2.4,5.35-7.45,8.61-11.8,12.22c3.55-6.16,2.03-13.44-1.28-19.37c-5-11.45-13.69-21.43-25.02-26.95
					C165.01-490.15,165.18-494.37,165.64-498.58z"/>
				<path class="st1" d="M129.25-483.11c3.48-2.04,7.02-3.93,10.69-5.62c2.85,12.51,3.63,26.14-1.64,38.14
					c-3.24,7.33-8.32,14.66-16.19,17.41c-7.21,2.09-14.22-1.32-20.84-3.77c9.96,0.96,15.72-8.34,20.19-15.7
					C127.19-461.72,129.05-472.54,129.25-483.11z"/>
			</g>
		</g>
	</g>
</pattern>
<pattern  id="SVGID_1_" xlink:href="#New_Pattern" patternTransform="matrix(1 0 0 1 -444.8856 -1306.0807)">
</pattern>
<rect class="st2" width="841.89" height="595.28"/>
</svg>
