<?xml version="1.0" encoding="utf-8"?>
<!-- Generator: Adobe Illustrator 25.1.0, SVG Export Plug-In . SVG Version: 6.00 Build 0)  -->
<svg version="1.1" id="Layer_1" xmlns="http://www.w3.org/2000/svg" xmlns:xlink="http://www.w3.org/1999/xlink" x="0px" y="0px"
	 viewBox="0 0 841.89 595.28" style="enable-background:new 0 0 841.89 595.28;" xml:space="preserve">
<style type="text/css">
	.st0{fill:none;}
	.st1{fill:#020203;}
	.st2{fill:url(#SVGID_1_);stroke:#020203;stroke-width:0.4291;stroke-miterlimit:10;}
</style>
<pattern  width="112.64" height="70.16" patternUnits="userSpaceOnUse" id="New_Pattern_2" viewBox="23.32 -81.1 112.64 70.16" style="overflow:visible;">
	<g>
		<rect x="23.32" y="-81.1" class="st0" width="112.64" height="70.16"/>
		<g>
			<path class="st1" d="M121.32-41.09c2.77-2.2,7.05-1.87,9.61,0.49c2.76,2.46,3.74,6.28,4.08,9.83c0.48,6.75-1.59,13.51-5.05,19.26
				c-0.7-1.05-1.69-1.96-2.19-3.11c3.14-5.48,2.92-12.41,0.39-18.08c-1.3-2.58-2.9-5.36-5.66-6.6c-1.97-0.44-2.96,1.49-3.92,2.79
				C119.1-38.21,119.8-40.01,121.32-41.09z"/>
			<path class="st1" d="M113.7-35.74c0.96-1.8,2.7-2.92,4.3-4.1c-1.84,2.91-0.22,6.3,1.28,8.95c1.88,3.73,5.03,6.68,8.7,8.61
				c0.07,1.58,0.03,3.17-0.11,4.75c-5.68-1.57-11.25-4.98-13.91-10.43C112.75-30.32,112.28-33.35,113.7-35.74z"/>
			<path class="st1" d="M149.35-39.2c2.09,0.05,4.4-0.3,6.26,0.92c2.97,1.72,4.45,5.52,3.37,8.81c-1.4,4.5-5.42,7.53-9.45,9.6
				c-4.98,2.45-10.58,3.62-16.12,3.4c0.53-1.12,1.06-2.25,1.55-3.4c6.69-0.03,12.97-4.07,16.55-9.59c1.12-2.2,2.68-4.55,2.24-7.12
				C153.43-38.62,150.87-38.6,149.35-39.2z"/>
			<path class="st1" d="M108.71-21.68c4.05-0.76,8.16,0.68,11.61,2.72c5.11,3.11,9.31,7.67,12.13,12.94
				c-1.27,0.14-2.52,0.28-3.78,0.42c-4.32-7.65-14.6-11.37-22.86-8.58c-2.46,0.85-1.75,3.69-0.66,5.38
				c-1.52-1.39-2.72-3.29-2.65-5.42C102.41-17.8,105.25-21,108.71-21.68z"/>
		</g>
		<g>
			<path class="st1" d="M26.17-36.98c1.33-2.43,3.28-4.89,6.13-5.5c2.63-0.55,5.14,0.64,7.48,1.66c-1.44-0.09-3.08-0.06-4.12,1.1
				c-4.44,4.21-6.69,10.32-6.67,16.39c-1.31,0.73-2.65,1.4-4.01,2.02C23.74-26.47,23.61-32.19,26.17-36.98z"/>
			<path class="st1" d="M36.71-39.2c2.09,0.05,4.4-0.3,6.26,0.92c2.97,1.72,4.45,5.52,3.37,8.81c-1.4,4.5-5.42,7.53-9.45,9.6
				c-4.98,2.45-10.58,3.62-16.12,3.4c0.53-1.12,1.06-2.25,1.55-3.4c6.69-0.03,12.97-4.07,16.55-9.59c1.12-2.2,2.68-4.55,2.24-7.12
				C40.79-38.62,38.23-38.6,36.71-39.2z"/>
			<path class="st1" d="M33.08-14.7c3.95-3.81,9.11-6.79,14.73-6.84c2.59-0.07,5.44,0.56,7.27,2.53c1.77,2.16,2.47,5.17,2.01,7.91
				c-0.21-3.42-3.9-4.26-6.72-4.27c-4.66-0.45-9.36,0.69-13.32,3.17C35.66-12.93,34.34-13.78,33.08-14.7z"/>
			<path class="st1" d="M26.93-15.9c1.22-0.13,2.45-0.28,3.67-0.46c3.02,5.52,9.18,8.74,15.27,9.5c2.84,0.17,5.97,0.17,8.48-1.35
				c1.64-1.33,0.58-3.35-0.1-4.89c3.44,2.74,3.36,8.43-0.07,11.14c-3.26,2.7-7.91,2.24-11.6,0.79C35.84-4,30.26-9.42,26.93-15.9z"/>
		</g>
		<g>
			<path class="st1" d="M108.71-91.84c4.05-0.76,8.16,0.68,11.61,2.72c5.11,3.11,9.31,7.67,12.13,12.94
				c-1.27,0.14-2.52,0.28-3.78,0.42c-4.32-7.65-14.6-11.37-22.86-8.58c-2.46,0.85-1.75,3.69-0.66,5.38
				c-1.52-1.39-2.72-3.29-2.65-5.42C102.41-87.96,105.25-91.16,108.71-91.84z"/>
			<path class="st1" d="M104.52-72.73c-2.11-2.11-2.49-5.24-2.47-8.08c0.13,1.94,1.79,3.28,3.58,3.65
				c5.57,1.27,11.7,0.49,16.52-2.68c1.46,0.67,2.81,1.56,4.1,2.52c-3.56,3.29-7.87,6.05-12.76,6.66
				C110.4-70.26,106.93-70.58,104.52-72.73z"/>
			<path class="st1" d="M119.98-70.78c5.49-3.45,12.08-5.01,18.54-4.81c-0.5,1.13-1,2.26-1.47,3.4c-6.69,0.01-12.93,4.05-16.53,9.54
				c-1.23,2.31-2.96,4.89-2.18,7.61c0.58,1.68,2.73,1.52,4.12,1.95c-1.75,0.19-3.61,0.5-5.26-0.29c-3.26-1.27-5.16-5.09-4.37-8.47
				C113.6-65.77,116.77-68.66,119.98-70.78z"/>
			<path class="st1" d="M130.29-68.66c1.32-0.78,2.67-1.5,4.07-2.14c1.09,4.76,1.38,9.94-0.62,14.51c-1.23,2.79-3.17,5.57-6.16,6.62
				c-2.74,0.8-5.41-0.5-7.93-1.43c3.79,0.37,5.98-3.17,7.68-5.97C129.5-60.52,130.21-64.64,130.29-68.66z"/>
		</g>
		<g>
			<path class="st1" d="M65-76.17c2.77-2.2,7.05-1.87,9.61,0.49c2.76,2.46,3.74,6.28,4.08,9.83c0.48,6.75-1.59,13.51-5.05,19.26
				c-0.7-1.05-1.69-1.96-2.19-3.11c3.14-5.48,2.92-12.41,0.39-18.08c-1.3-2.58-2.9-5.36-5.66-6.6c-1.97-0.44-2.96,1.49-3.92,2.79
				C62.78-73.29,63.48-75.09,65-76.17z"/>
			<path class="st1" d="M82.49-72.06c1.33-2.43,3.28-4.89,6.13-5.5c2.63-0.55,5.14,0.64,7.48,1.66c-1.44-0.09-3.08-0.06-4.12,1.1
				c-4.44,4.21-6.69,10.32-6.67,16.39c-1.31,0.73-2.65,1.4-4.01,2.02C80.06-61.55,79.93-67.27,82.49-72.06z"/>
			<path class="st1" d="M57.38-70.82c0.96-1.8,2.7-2.92,4.3-4.1c-1.84,2.91-0.22,6.3,1.28,8.95c1.88,3.73,5.03,6.68,8.7,8.61
				c0.07,1.58,0.03,3.17-0.11,4.75c-5.68-1.57-11.25-4.98-13.91-10.43C56.42-65.4,55.96-68.43,57.38-70.82z"/>
			<path class="st1" d="M93.03-74.28c2.09,0.05,4.4-0.3,6.26,0.92c2.97,1.72,4.45,5.52,3.37,8.81c-1.4,4.5-5.42,7.53-9.45,9.6
				c-4.98,2.45-10.58,3.62-16.12,3.4c0.53-1.12,1.06-2.25,1.55-3.4c6.69-0.03,12.97-4.07,16.55-9.59c1.12-2.2,2.68-4.55,2.24-7.12
				C97.11-73.7,94.55-73.68,93.03-74.28z"/>
			<path class="st1" d="M52.39-56.76c4.05-0.76,8.16,0.68,11.61,2.72c5.11,3.11,9.31,7.67,12.13,12.94
				c-1.27,0.14-2.52,0.28-3.78,0.42c-4.32-7.65-14.6-11.37-22.86-8.58c-2.46,0.85-1.75,3.69-0.66,5.38
				c-1.52-1.39-2.72-3.29-2.65-5.42C46.09-52.88,48.93-56.08,52.39-56.76z"/>
			<path class="st1" d="M89.4-49.78c3.95-3.81,9.11-6.79,14.73-6.84c2.59-0.07,5.44,0.56,7.27,2.53c1.77,2.16,2.47,5.17,2.01,7.91
				c-0.21-3.42-3.9-4.26-6.72-4.27c-4.66-0.45-9.36,0.69-13.32,3.17C91.98-48.01,90.66-48.86,89.4-49.78z"/>
			<path class="st1" d="M83.25-50.98c1.22-0.13,2.45-0.28,3.67-0.46c3.02,5.52,9.18,8.74,15.27,9.5c2.84,0.17,5.97,0.17,8.48-1.35
				c1.64-1.33,0.58-3.35-0.1-4.89c3.44,2.74,3.36,8.43-0.07,11.14c-3.26,2.7-7.91,2.24-11.6,0.79
				C92.16-39.08,86.58-44.5,83.25-50.98z"/>
			<path class="st1" d="M48.2-37.65c-2.11-2.11-2.49-5.24-2.47-8.08c0.13,1.94,1.79,3.28,3.58,3.65c5.57,1.27,11.7,0.49,16.52-2.68
				c1.46,0.67,2.81,1.56,4.1,2.52c-3.56,3.29-7.87,6.05-12.76,6.66C54.08-35.18,50.61-35.5,48.2-37.65z"/>
			<path class="st1" d="M80.65-30.57c0.52-5.27,2.27-10.42,5.1-14.9c0.71,1.02,1.44,2.04,2.18,3.04c-3.19,5.3-2.93,12.07-0.67,17.67
				c1.21,2.61,2.77,5.34,5.33,6.82c2.03,1.16,3.44-1.07,4.48-2.46c-0.62,1.92-1.51,3.96-3.39,4.95c-3.19,2.06-7.66,0.98-9.95-1.91
				C80.84-21.07,80.28-26.03,80.65-30.57z"/>
			<path class="st1" d="M63.66-35.7c5.49-3.45,12.08-5.01,18.54-4.81c-0.5,1.13-1,2.26-1.47,3.4c-6.69,0.01-12.93,4.05-16.53,9.54
				c-1.23,2.31-2.96,4.89-2.18,7.61c0.58,1.68,2.73,1.52,4.12,1.95c-1.75,0.19-3.61,0.5-5.26-0.29c-3.26-1.27-5.16-5.09-4.37-8.47
				C57.28-30.69,60.45-33.58,63.66-35.7z"/>
			<path class="st1" d="M87.8-39.46c5.27,1.55,10.44,4.51,13.29,9.36c1.48,2.47,2.43,5.68,1.08,8.41c-0.91,2.04-2.83,3.28-4.49,4.65
				c1.35-2.34,0.77-5.11-0.49-7.37c-1.9-4.35-5.21-8.15-9.52-10.25C87.57-36.26,87.63-37.86,87.8-39.46z"/>
			<path class="st1" d="M73.96-33.58c1.32-0.78,2.67-1.5,4.07-2.14c1.09,4.76,1.38,9.94-0.62,14.51c-1.23,2.79-3.17,5.57-6.16,6.62
				c-2.74,0.8-5.41-0.5-7.93-1.43c3.79,0.37,5.98-3.17,7.68-5.97C73.18-25.44,73.89-29.56,73.96-33.58z"/>
		</g>
		<g>
			<path class="st1" d="M26.93-86.06c1.22-0.13,2.45-0.28,3.67-0.46c3.02,5.52,9.18,8.74,15.27,9.5c2.84,0.17,5.97,0.17,8.48-1.35
				c1.64-1.33,0.58-3.35-0.1-4.89c3.44,2.74,3.36,8.43-0.07,11.14c-3.26,2.7-7.91,2.24-11.6,0.79
				C35.84-74.16,30.26-79.58,26.93-86.06z"/>
			<path class="st1" d="M24.33-65.65c0.52-5.27,2.27-10.42,5.1-14.9c0.71,1.02,1.44,2.04,2.18,3.04c-3.19,5.3-2.93,12.07-0.67,17.67
				c1.21,2.61,2.77,5.34,5.33,6.82c2.03,1.16,3.44-1.07,4.48-2.46c-0.62,1.92-1.51,3.96-3.39,4.95c-3.19,2.06-7.66,0.98-9.95-1.91
				C24.52-56.15,23.96-61.11,24.33-65.65z"/>
			<path class="st1" d="M7.34-70.78c5.49-3.45,12.08-5.01,18.54-4.81c-0.5,1.13-1,2.26-1.47,3.4c-6.69,0.01-12.93,4.05-16.53,9.54
				c-1.23,2.31-2.96,4.89-2.18,7.61c0.58,1.68,2.73,1.52,4.12,1.95c-1.75,0.19-3.61,0.5-5.26-0.29c-3.26-1.27-5.16-5.09-4.37-8.47
				C0.96-65.77,4.13-68.66,7.34-70.78z"/>
			<path class="st1" d="M31.48-74.54c5.27,1.55,10.44,4.51,13.29,9.36c1.48,2.47,2.43,5.68,1.08,8.41
				c-0.91,2.04-2.83,3.28-4.49,4.65c1.35-2.34,0.77-5.11-0.49-7.37c-1.9-4.35-5.21-8.15-9.52-10.25
				C31.25-71.34,31.31-72.94,31.48-74.54z"/>
		</g>
	</g>
</pattern>
<pattern  id="SVGID_1_" xlink:href="#New_Pattern_2" patternTransform="matrix(1 0 0 1 -69.7373 -102.0968)">
</pattern>
<rect class="st2" width="841.89" height="595.28"/>
</svg>
