<?xml version="1.0" encoding="utf-8"?>
<!-- Generator: Adobe Illustrator 25.1.0, SVG Export Plug-In . SVG Version: 6.00 Build 0)  -->
<svg version="1.1" id="Layer_1" xmlns="http://www.w3.org/2000/svg" xmlns:xlink="http://www.w3.org/1999/xlink" x="0px" y="0px"
	 viewBox="0 0 841.89 595.28" style="enable-background:new 0 0 841.89 595.28;" xml:space="preserve">
<style type="text/css">
	.st0{fill:none;}
	.st1{fill:none;stroke:#020203;stroke-width:0.5;stroke-miterlimit:10;}
	.st2{fill:url(#SVGID_1_);stroke:#020203;stroke-width:0.4291;stroke-miterlimit:10;}
</style>
<pattern  width="151.19" height="141.32" patternUnits="userSpaceOnUse" id="New_Pattern_3" viewBox="26.07 -153.68 151.19 141.32" style="overflow:visible;">
	<g>
		<rect x="26.07" y="-153.68" class="st0" width="151.19" height="141.32"/>
		<g>
			<path class="st1" d="M123.25-45.75c3.07-2.44,7.8-2.07,10.65,0.55c3.05,2.72,4.15,6.96,4.52,10.89
				c0.53,7.47-1.76,14.96-5.6,21.33c-0.78-1.17-1.87-2.17-2.43-3.45c3.48-6.07,3.23-13.75,0.43-20.02c-1.44-2.85-3.21-5.94-6.27-7.3
				c-2.18-0.49-3.28,1.65-4.35,3.09C120.8-42.57,121.57-44.55,123.25-45.75z"/>
			<path class="st1" d="M142.62-41.2c1.47-2.69,3.63-5.42,6.78-6.09c2.91-0.61,5.69,0.7,8.28,1.83c-1.59-0.1-3.41-0.07-4.56,1.22
				c-4.91,4.67-7.4,11.43-7.39,18.15c-1.45,0.8-2.94,1.55-4.44,2.23C139.93-29.56,139.79-35.89,142.62-41.2z"/>
			<path class="st1" d="M114.82-39.82c1.07-1.99,2.99-3.24,4.76-4.54c-2.03,3.22-0.25,6.98,1.42,9.91c2.08,4.12,5.57,7.4,9.63,9.54
				c0.08,1.75,0.03,3.51-0.12,5.26c-6.29-1.74-12.46-5.52-15.4-11.55C113.76-33.83,113.24-37.18,114.82-39.82z"/>
			<path class="st1" d="M154.29-43.65c2.31,0.06,4.87-0.33,6.93,1.02c3.29,1.91,4.93,6.12,3.73,9.75c-1.55,4.99-6,8.33-10.47,10.62
				c-5.51,2.71-11.71,4.01-17.85,3.77c0.59-1.24,1.17-2.49,1.71-3.76c7.41-0.03,14.37-4.5,18.33-10.62
				c1.24-2.43,2.97-5.04,2.47-7.89C158.81-43.01,155.97-42.99,154.29-43.65z"/>
			<path class="st1" d="M109.29-24.25c4.48-0.84,9.03,0.75,12.85,3.02c5.66,3.45,10.3,8.49,13.43,14.33
				c-1.4,0.16-2.79,0.31-4.19,0.46c-4.79-8.47-16.17-12.59-25.32-9.5c-2.72,0.95-1.94,4.09-0.73,5.95c-1.69-1.54-3.01-3.64-2.93-6
				C102.31-19.96,105.46-23.5,109.29-24.25z"/>
			<path class="st1" d="M150.28-16.53c4.37-4.22,10.08-7.52,16.31-7.57c2.87-0.08,6.02,0.62,8.05,2.8c1.96,2.39,2.73,5.72,2.23,8.75
				c-0.23-3.79-4.32-4.72-7.44-4.73c-5.16-0.5-10.36,0.77-14.75,3.51C153.13-14.57,151.67-15.51,150.28-16.53z"/>
			<path class="st1" d="M143.46-17.85c1.35-0.15,2.71-0.31,4.06-0.5c3.34,6.12,10.16,9.68,16.91,10.52
				c3.14,0.19,6.61,0.19,9.39-1.49c1.81-1.47,0.65-3.71-0.11-5.41c3.81,3.04,3.72,9.34-0.08,12.33c-3.61,2.99-8.75,2.47-12.84,0.87
				C153.33-4.67,147.15-10.68,143.46-17.85z"/>
		</g>
		<g>
			<path class="st1" d="M47.66-45.75c3.07-2.44,7.8-2.07,10.65,0.55c3.05,2.72,4.15,6.96,4.52,10.89c0.53,7.47-1.76,14.96-5.6,21.33
				c-0.78-1.17-1.87-2.17-2.43-3.45c3.48-6.07,3.23-13.75,0.43-20.02c-1.44-2.85-3.21-5.94-6.27-7.3c-2.18-0.49-3.28,1.65-4.35,3.09
				C45.2-42.57,45.98-44.55,47.66-45.75z"/>
			<path class="st1" d="M67.03-41.2c1.47-2.69,3.63-5.42,6.78-6.09c2.91-0.61,5.69,0.7,8.28,1.83c-1.59-0.1-3.41-0.07-4.56,1.22
				c-4.91,4.67-7.4,11.43-7.39,18.15c-1.45,0.8-2.94,1.55-4.44,2.23C64.33-29.56,64.19-35.89,67.03-41.2z"/>
			<path class="st1" d="M39.22-39.82c1.07-1.99,2.99-3.24,4.76-4.54c-2.03,3.22-0.25,6.98,1.42,9.91c2.08,4.12,5.57,7.4,9.63,9.54
				c0.08,1.75,0.03,3.51-0.12,5.26c-6.29-1.74-12.46-5.52-15.4-11.55C38.16-33.83,37.65-37.18,39.22-39.82z"/>
			<path class="st1" d="M78.7-43.65c2.31,0.06,4.87-0.33,6.93,1.02c3.29,1.91,4.93,6.12,3.73,9.75c-1.55,4.99-6,8.33-10.47,10.62
				c-5.51,2.71-11.71,4.01-17.85,3.77c0.59-1.24,1.17-2.49,1.71-3.76c7.41-0.03,14.37-4.5,18.33-10.62
				c1.24-2.43,2.97-5.04,2.47-7.89C83.21-43.01,80.38-42.99,78.7-43.65z"/>
			<path class="st1" d="M33.7-24.25c4.48-0.84,9.03,0.75,12.85,3.02c5.66,3.45,10.3,8.49,13.43,14.33c-1.4,0.16-2.79,0.31-4.19,0.46
				c-4.79-8.47-16.17-12.59-25.32-9.5c-2.72,0.95-1.94,4.09-0.73,5.95c-1.69-1.54-3.01-3.64-2.93-6
				C26.72-19.96,29.86-23.5,33.7-24.25z"/>
			<path class="st1" d="M74.68-16.53c4.37-4.22,10.08-7.52,16.31-7.57c2.87-0.08,6.02,0.62,8.05,2.8c1.96,2.39,2.73,5.72,2.23,8.75
				c-0.23-3.79-4.32-4.72-7.44-4.73c-5.16-0.5-10.36,0.77-14.75,3.51C77.53-14.57,76.07-15.51,74.68-16.53z"/>
			<path class="st1" d="M67.87-17.85c1.35-0.15,2.71-0.31,4.06-0.5c3.34,6.12,10.16,9.68,16.91,10.52c3.14,0.19,6.61,0.19,9.39-1.49
				c1.81-1.47,0.65-3.71-0.11-5.41c3.81,3.04,3.72,9.34-0.08,12.33c-3.61,2.99-8.75,2.47-12.84,0.87
				C77.73-4.67,71.56-10.68,67.87-17.85z"/>
		</g>
		<g>
			<path class="st1" d="M161.05-116.41c3.07-2.44,7.8-2.07,10.65,0.55c3.05,2.72,4.15,6.96,4.52,10.89
				c0.53,7.47-1.76,14.96-5.6,21.33c-0.78-1.17-1.87-2.17-2.43-3.45c3.48-6.07,3.23-13.75,0.43-20.02c-1.44-2.85-3.21-5.94-6.27-7.3
				c-2.18-0.49-3.28,1.65-4.35,3.09C158.59-113.23,159.37-115.21,161.05-116.41z"/>
			<path class="st1" d="M152.61-110.48c1.07-1.99,2.99-3.24,4.76-4.54c-2.03,3.22-0.25,6.98,1.42,9.91c2.08,4.12,5.57,7.4,9.63,9.54
				c0.08,1.75,0.03,3.51-0.12,5.26c-6.29-1.74-12.46-5.52-15.4-11.55C151.55-104.49,151.04-107.84,152.61-110.48z"/>
			<path class="st1" d="M192.09-114.31c2.31,0.06,4.87-0.33,6.93,1.02c3.29,1.91,4.93,6.12,3.73,9.75c-1.55,4.99-6,8.33-10.47,10.62
				c-5.51,2.71-11.71,4.01-17.85,3.77c0.59-1.24,1.17-2.49,1.71-3.76c7.41-0.03,14.37-4.5,18.33-10.62
				c1.24-2.43,2.97-5.04,2.47-7.89C196.61-113.67,193.77-113.65,192.09-114.31z"/>
			<path class="st1" d="M147.09-94.91c4.48-0.84,9.03,0.75,12.85,3.02c5.66,3.45,10.3,8.49,13.43,14.33
				c-1.4,0.16-2.79,0.31-4.19,0.46c-4.79-8.47-16.17-12.59-25.32-9.5c-2.72,0.95-1.94,4.09-0.73,5.95c-1.69-1.54-3.01-3.64-2.93-6
				C140.11-90.63,143.25-94.16,147.09-94.91z"/>
			<path class="st1" d="M142.45-73.76c-2.33-2.33-2.75-5.8-2.74-8.95c0.14,2.15,1.98,3.63,3.96,4.05c6.17,1.4,12.95,0.55,18.29-2.97
				c1.61,0.75,3.11,1.73,4.54,2.79c-3.94,3.64-8.71,6.7-14.13,7.37C148.96-71.02,145.12-71.37,142.45-73.76z"/>
			<path class="st1" d="M159.56-71.59c6.08-3.82,13.38-5.55,20.52-5.33c-0.55,1.25-1.1,2.5-1.63,3.77
				c-7.41,0.01-14.32,4.49-18.31,10.57c-1.36,2.55-3.28,5.41-2.42,8.43c0.65,1.86,3.02,1.69,4.57,2.16c-1.93,0.21-4,0.55-5.82-0.32
				c-3.61-1.41-5.72-5.63-4.84-9.38C152.5-66.05,156.01-69.25,159.56-71.59z"/>
			<path class="st1" d="M170.98-69.25c1.47-0.86,2.96-1.66,4.5-2.37c1.2,5.27,1.53,11.01-0.69,16.07c-1.37,3.09-3.51,6.17-6.82,7.33
				c-3.04,0.88-5.99-0.55-8.78-1.59c4.2,0.41,6.62-3.51,8.51-6.61C170.11-60.24,170.89-64.8,170.98-69.25z"/>
		</g>
		<g>
			<path class="st1" d="M85.45-116.41c3.07-2.44,7.8-2.07,10.65,0.55c3.05,2.72,4.15,6.96,4.52,10.89
				c0.53,7.47-1.76,14.96-5.6,21.33c-0.78-1.17-1.87-2.17-2.43-3.45c3.48-6.07,3.23-13.75,0.43-20.02c-1.44-2.85-3.21-5.94-6.27-7.3
				c-2.18-0.49-3.28,1.65-4.35,3.09C83-113.23,83.78-115.21,85.45-116.41z"/>
			<path class="st1" d="M104.83-111.86c1.47-2.69,3.63-5.42,6.78-6.09c2.91-0.61,5.69,0.7,8.28,1.83c-1.59-0.1-3.41-0.07-4.56,1.22
				c-4.91,4.67-7.4,11.43-7.39,18.15c-1.45,0.8-2.94,1.55-4.44,2.23C102.13-100.22,101.99-106.56,104.83-111.86z"/>
			<path class="st1" d="M77.02-110.48c1.07-1.99,2.99-3.24,4.76-4.54c-2.03,3.22-0.25,6.98,1.42,9.91c2.08,4.12,5.57,7.4,9.63,9.54
				c0.08,1.75,0.03,3.51-0.12,5.26c-6.29-1.74-12.46-5.52-15.4-11.55C75.96-104.49,75.45-107.84,77.02-110.48z"/>
			<path class="st1" d="M116.5-114.31c2.31,0.06,4.87-0.33,6.93,1.02c3.29,1.91,4.93,6.12,3.73,9.75c-1.55,4.99-6,8.33-10.47,10.62
				c-5.51,2.71-11.71,4.01-17.85,3.77c0.59-1.24,1.17-2.49,1.71-3.76c7.41-0.03,14.37-4.5,18.33-10.62
				c1.24-2.43,2.97-5.04,2.47-7.89C121.01-113.67,118.17-113.65,116.5-114.31z"/>
			<path class="st1" d="M71.49-94.91c4.48-0.84,9.03,0.75,12.85,3.02c5.66,3.45,10.3,8.49,13.43,14.33
				c-1.4,0.16-2.79,0.31-4.19,0.46c-4.79-8.47-16.17-12.59-25.32-9.5c-2.72,0.95-1.94,4.09-0.73,5.95c-1.69-1.54-3.01-3.64-2.93-6
				C64.52-90.63,67.66-94.16,71.49-94.91z"/>
			<path class="st1" d="M112.48-87.19c4.37-4.22,10.08-7.52,16.31-7.57c2.87-0.08,6.02,0.62,8.05,2.8c1.96,2.39,2.73,5.72,2.23,8.75
				c-0.23-3.79-4.32-4.72-7.44-4.73c-5.16-0.5-10.36,0.77-14.75,3.51C115.33-85.23,113.87-86.17,112.48-87.19z"/>
			<path class="st1" d="M105.67-88.51c1.35-0.15,2.71-0.31,4.06-0.5c3.34,6.12,10.16,9.68,16.91,10.52
				c3.14,0.19,6.61,0.19,9.39-1.49c1.81-1.47,0.65-3.71-0.11-5.41c3.81,3.04,3.72,9.34-0.08,12.33c-3.61,2.99-8.75,2.47-12.84,0.87
				C115.53-75.33,109.36-81.34,105.67-88.51z"/>
			<path class="st1" d="M66.86-73.76c-2.33-2.33-2.75-5.8-2.74-8.95c0.14,2.15,1.98,3.63,3.96,4.05c6.17,1.4,12.95,0.55,18.29-2.97
				c1.61,0.75,3.11,1.73,4.54,2.79c-3.94,3.64-8.71,6.7-14.13,7.37C73.36-71.02,69.52-71.37,66.86-73.76z"/>
			<path class="st1" d="M102.78-65.92c0.58-5.83,2.52-11.54,5.65-16.5c0.79,1.13,1.59,2.25,2.42,3.36
				c-3.53,5.87-3.24,13.36-0.75,19.56c1.34,2.89,3.07,5.92,5.9,7.55c2.25,1.28,3.81-1.19,4.96-2.72c-0.68,2.13-1.67,4.39-3.76,5.48
				c-3.53,2.28-8.48,1.09-11.02-2.12C103-55.4,102.37-60.88,102.78-65.92z"/>
			<path class="st1" d="M83.97-71.59c6.08-3.82,13.38-5.55,20.52-5.33c-0.55,1.25-1.1,2.5-1.63,3.77
				c-7.41,0.01-14.32,4.49-18.31,10.57c-1.36,2.55-3.28,5.41-2.42,8.43c0.65,1.86,3.02,1.69,4.57,2.16c-1.93,0.21-4,0.55-5.82-0.32
				c-3.61-1.41-5.72-5.63-4.84-9.38C76.91-66.05,80.42-69.25,83.97-71.59z"/>
			<path class="st1" d="M110.71-75.76c5.84,1.71,11.56,4.99,14.71,10.37c1.64,2.73,2.7,6.29,1.19,9.31
				c-1.01,2.25-3.14,3.63-4.97,5.15c1.49-2.6,0.85-5.66-0.54-8.16c-2.11-4.82-5.77-9.02-10.54-11.35
				C110.44-72.21,110.52-73.99,110.71-75.76z"/>
			<path class="st1" d="M95.38-69.25c1.47-0.86,2.96-1.66,4.5-2.37c1.2,5.27,1.53,11.01-0.69,16.07c-1.37,3.09-3.51,6.17-6.82,7.33
				c-3.04,0.88-5.99-0.55-8.78-1.59c4.2,0.41,6.62-3.51,8.51-6.61C94.51-60.24,95.3-64.8,95.38-69.25z"/>
		</g>
		<g>
			<path class="st1" d="M29.23-111.86c1.47-2.69,3.63-5.42,6.78-6.09c2.91-0.61,5.69,0.7,8.28,1.83c-1.59-0.1-3.41-0.07-4.56,1.22
				c-4.91,4.67-7.4,11.43-7.39,18.15c-1.45,0.8-2.94,1.55-4.44,2.23C26.54-100.22,26.39-106.56,29.23-111.86z"/>
			<path class="st1" d="M40.9-114.31c2.31,0.06,4.87-0.33,6.93,1.02c3.29,1.91,4.93,6.12,3.73,9.75c-1.55,4.99-6,8.33-10.47,10.62
				c-5.51,2.71-11.71,4.01-17.85,3.77c0.59-1.24,1.17-2.49,1.71-3.76c7.41-0.03,14.37-4.5,18.33-10.62
				c1.24-2.43,2.97-5.04,2.47-7.89C45.42-113.67,42.58-113.65,40.9-114.31z"/>
			<path class="st1" d="M36.88-87.19c4.37-4.22,10.08-7.52,16.31-7.57c2.87-0.08,6.02,0.62,8.05,2.8c1.96,2.39,2.73,5.72,2.23,8.75
				c-0.23-3.79-4.32-4.72-7.44-4.73c-5.16-0.5-10.36,0.77-14.75,3.51C39.74-85.23,38.28-86.17,36.88-87.19z"/>
			<path class="st1" d="M30.07-88.51c1.35-0.15,2.71-0.31,4.06-0.5c3.34,6.12,10.16,9.68,16.91,10.52c3.14,0.19,6.61,0.19,9.39-1.49
				c1.81-1.47,0.65-3.71-0.11-5.41c3.81,3.04,3.72,9.34-0.08,12.33c-3.61,2.99-8.75,2.47-12.84,0.87
				C39.93-75.33,33.76-81.34,30.07-88.51z"/>
			<path class="st1" d="M27.19-65.92c0.58-5.83,2.52-11.54,5.65-16.5c0.79,1.13,1.59,2.25,2.42,3.36
				c-3.53,5.87-3.24,13.36-0.75,19.56c1.34,2.89,3.07,5.92,5.9,7.55c2.25,1.28,3.81-1.19,4.96-2.72c-0.68,2.13-1.67,4.39-3.76,5.48
				c-3.53,2.28-8.48,1.09-11.02-2.12C27.4-55.4,26.78-60.88,27.19-65.92z"/>
			<path class="st1" d="M8.37-71.59c6.08-3.82,13.38-5.55,20.52-5.33c-0.55,1.25-1.1,2.5-1.63,3.77
				c-7.41,0.01-14.32,4.49-18.31,10.57c-1.36,2.55-3.28,5.41-2.42,8.43c0.65,1.86,3.02,1.69,4.57,2.16c-1.93,0.21-4,0.55-5.82-0.32
				c-3.61-1.41-5.72-5.63-4.84-9.38C1.31-66.05,4.82-69.25,8.37-71.59z"/>
			<path class="st1" d="M35.11-75.76c5.84,1.71,11.56,4.99,14.71,10.37c1.64,2.73,2.7,6.29,1.19,9.31
				c-1.01,2.25-3.14,3.63-4.97,5.15c1.49-2.6,0.85-5.66-0.54-8.16c-2.11-4.82-5.77-9.02-10.54-11.35
				C34.85-72.21,34.92-73.99,35.11-75.76z"/>
		</g>
		<g>
			<path class="st1" d="M109.29-165.57c4.48-0.84,9.03,0.75,12.85,3.02c5.66,3.45,10.3,8.49,13.43,14.33
				c-1.4,0.16-2.79,0.31-4.19,0.46c-4.79-8.47-16.17-12.59-25.32-9.5c-2.72,0.95-1.94,4.09-0.73,5.95c-1.69-1.54-3.01-3.64-2.93-6
				C102.31-161.29,105.46-164.82,109.29-165.57z"/>
			<path class="st1" d="M150.28-157.85c4.37-4.22,10.08-7.52,16.31-7.57c2.87-0.08,6.02,0.62,8.05,2.8
				c1.96,2.39,2.73,5.72,2.23,8.75c-0.23-3.79-4.32-4.72-7.44-4.73c-5.16-0.5-10.36,0.77-14.75,3.51
				C153.13-155.89,151.67-156.83,150.28-157.85z"/>
			<path class="st1" d="M143.46-159.17c1.35-0.15,2.71-0.31,4.06-0.5c3.34,6.12,10.16,9.68,16.91,10.52
				c3.14,0.19,6.61,0.19,9.39-1.49c1.81-1.47,0.65-3.71-0.11-5.41c3.81,3.04,3.72,9.34-0.08,12.33c-3.61,2.99-8.75,2.47-12.84,0.87
				C153.33-146,147.15-152,143.46-159.17z"/>
			<path class="st1" d="M104.65-144.42c-2.33-2.33-2.75-5.8-2.74-8.95c0.14,2.15,1.98,3.63,3.96,4.05
				c6.17,1.4,12.95,0.55,18.29-2.97c1.61,0.75,3.11,1.73,4.54,2.79c-3.94,3.64-8.71,6.7-14.13,7.37
				C111.16-141.68,107.32-142.03,104.65-144.42z"/>
			<path class="st1" d="M140.58-136.58c0.58-5.83,2.52-11.54,5.65-16.5c0.79,1.13,1.59,2.25,2.42,3.36
				c-3.53,5.87-3.24,13.36-0.75,19.56c1.34,2.89,3.07,5.92,5.9,7.55c2.25,1.28,3.81-1.19,4.96-2.72c-0.68,2.13-1.67,4.39-3.76,5.48
				c-3.53,2.28-8.48,1.09-11.02-2.12C140.8-126.06,140.17-131.54,140.58-136.58z"/>
			<path class="st1" d="M121.76-142.25c6.08-3.82,13.38-5.55,20.52-5.33c-0.55,1.25-1.1,2.5-1.63,3.77
				c-7.41,0.01-14.32,4.49-18.31,10.57c-1.36,2.55-3.28,5.41-2.42,8.43c0.65,1.86,3.02,1.69,4.57,2.16c-1.93,0.21-4,0.55-5.82-0.32
				c-3.61-1.41-5.72-5.63-4.84-9.38C114.7-136.71,118.22-139.91,121.76-142.25z"/>
			<path class="st1" d="M148.5-146.42c5.84,1.71,11.56,4.99,14.71,10.37c1.64,2.73,2.7,6.29,1.19,9.31
				c-1.01,2.25-3.14,3.63-4.97,5.15c1.49-2.6,0.85-5.66-0.54-8.16c-2.11-4.82-5.77-9.02-10.54-11.35
				C148.24-142.87,148.31-144.65,148.5-146.42z"/>
			<path class="st1" d="M133.18-139.91c1.47-0.86,2.96-1.66,4.5-2.37c1.2,5.27,1.53,11.01-0.69,16.07
				c-1.37,3.09-3.51,6.17-6.82,7.33c-3.04,0.88-5.99-0.55-8.78-1.59c4.2,0.41,6.62-3.51,8.51-6.61
				C132.31-130.9,133.09-135.46,133.18-139.91z"/>
		</g>
		<g>
			<path class="st1" d="M33.7-165.57c4.48-0.84,9.03,0.75,12.85,3.02c5.66,3.45,10.3,8.49,13.43,14.33
				c-1.4,0.16-2.79,0.31-4.19,0.46c-4.79-8.47-16.17-12.59-25.32-9.5c-2.72,0.95-1.94,4.09-0.73,5.95c-1.69-1.54-3.01-3.64-2.93-6
				C26.72-161.29,29.86-164.82,33.7-165.57z"/>
			<path class="st1" d="M74.68-157.85c4.37-4.22,10.08-7.52,16.31-7.57c2.87-0.08,6.02,0.62,8.05,2.8c1.96,2.39,2.73,5.72,2.23,8.75
				c-0.23-3.79-4.32-4.72-7.44-4.73c-5.16-0.5-10.36,0.77-14.75,3.51C77.53-155.89,76.07-156.83,74.68-157.85z"/>
			<path class="st1" d="M67.87-159.17c1.35-0.15,2.71-0.31,4.06-0.5c3.34,6.12,10.16,9.68,16.91,10.52
				c3.14,0.19,6.61,0.19,9.39-1.49c1.81-1.47,0.65-3.71-0.11-5.41c3.81,3.04,3.72,9.34-0.08,12.33c-3.61,2.99-8.75,2.47-12.84,0.87
				C77.73-146,71.56-152,67.87-159.17z"/>
			<path class="st1" d="M29.06-144.42c-2.33-2.33-2.75-5.8-2.74-8.95c0.14,2.15,1.98,3.63,3.96,4.05c6.17,1.4,12.95,0.55,18.29-2.97
				c1.61,0.75,3.11,1.73,4.54,2.79c-3.94,3.64-8.71,6.7-14.13,7.37C35.57-141.68,31.73-142.03,29.06-144.42z"/>
			<path class="st1" d="M64.99-136.58c0.58-5.83,2.52-11.54,5.65-16.5c0.79,1.13,1.59,2.25,2.42,3.36
				c-3.53,5.87-3.24,13.36-0.75,19.56c1.34,2.89,3.07,5.92,5.9,7.55c2.25,1.28,3.81-1.19,4.96-2.72c-0.68,2.13-1.67,4.39-3.76,5.48
				c-3.53,2.28-8.48,1.09-11.02-2.12C65.2-126.06,64.58-131.54,64.99-136.58z"/>
			<path class="st1" d="M46.17-142.25c6.08-3.82,13.38-5.55,20.52-5.33c-0.55,1.25-1.1,2.5-1.63,3.77
				c-7.41,0.01-14.32,4.49-18.31,10.57c-1.36,2.55-3.28,5.41-2.42,8.43c0.65,1.86,3.02,1.69,4.57,2.16c-1.93,0.21-4,0.55-5.82-0.32
				c-3.61-1.41-5.72-5.63-4.84-9.38C39.11-136.71,42.62-139.91,46.17-142.25z"/>
			<path class="st1" d="M72.91-146.42c5.84,1.71,11.56,4.99,14.71,10.37c1.64,2.73,2.7,6.29,1.19,9.31
				c-1.01,2.25-3.14,3.63-4.97,5.15c1.49-2.6,0.85-5.66-0.54-8.16c-2.11-4.82-5.77-9.02-10.54-11.35
				C72.65-142.87,72.72-144.65,72.91-146.42z"/>
			<path class="st1" d="M57.58-139.91c1.47-0.86,2.96-1.66,4.5-2.37c1.2,5.27,1.53,11.01-0.69,16.07c-1.37,3.09-3.51,6.17-6.82,7.33
				c-3.04,0.88-5.99-0.55-8.78-1.59c4.2,0.41,6.62-3.51,8.51-6.61C56.72-130.9,57.5-135.46,57.58-139.91z"/>
		</g>
	</g>
</pattern>
<pattern  id="SVGID_1_" xlink:href="#New_Pattern_3" patternTransform="matrix(1 0 0 1 -117.2848 -199.5784)">
</pattern>
<rect class="st2" width="841.89" height="595.28"/>
</svg>
